<svg width="24" height="24" viewBox="0 0 24 24" fill="none" xmlns="http://www.w3.org/2000/svg">
<path d="M3 19.0001H21C21.1822 18.9995 21.3609 18.9493 21.5167 18.8547C21.6725 18.7602 21.7995 18.6249 21.8842 18.4636C21.9689 18.3022 22.0079 18.1207 21.9971 17.9388C21.9863 17.7569 21.9261 17.5814 21.823 17.4311L12.823 4.43111C12.45 3.89211 11.552 3.89211 11.178 4.43111L2.178 17.4311C2.07383 17.581 2.01274 17.7567 2.00137 17.9389C1.99 18.1211 2.02879 18.303 2.11352 18.4647C2.19825 18.6264 2.32568 18.7619 2.48197 18.8562C2.63825 18.9506 2.81742 19.0004 3 19.0001Z" fill="#0FA958"/>
</svg>
