<svg width="24" height="24" viewBox="0 0 24 24" fill="none" xmlns="http://www.w3.org/2000/svg">
<g clip-path="url(#clip0_27_1716)">
<path d="M23.3175 9.83723C23.4576 10.6426 23.5273 11.4587 23.526 12.2762C23.526 15.9272 22.221 19.0142 19.95 21.1037H19.953C17.967 22.9382 15.237 24.0002 12 24.0002C8.8174 24.0002 5.76516 22.7359 3.51472 20.4855C1.26428 18.2351 0 15.1828 0 12.0002C0 8.81763 1.26428 5.76538 3.51472 3.51495C5.76516 1.26451 8.8174 0.000228723 12 0.000228723C14.9786 -0.0329422 17.8548 1.08595 20.028 3.12323L16.602 6.54923C15.3633 5.36911 13.7107 4.7227 12 4.74923C8.8695 4.74923 6.21 6.86123 5.262 9.70523C4.76024 11.1956 4.76024 12.8093 5.262 14.2997H5.2665C6.219 17.1392 8.874 19.2512 12.0045 19.2512C13.6215 19.2512 15.0105 18.8372 16.0875 18.1052H16.083C16.7085 17.6911 17.2435 17.1544 17.6558 16.5276C18.068 15.9009 18.3489 15.1971 18.4815 14.4587H12V9.83873L23.3175 9.83723Z" fill="#333E49"/>
</g>
<defs>
<clipPath id="clip0_27_1716">
<rect width="24" height="24" fill="white"/>
</clipPath>
</defs>
</svg>
