<svg width="64" height="64" viewBox="0 0 64 64" fill="none" xmlns="http://www.w3.org/2000/svg">
<path d="M32 56C36.7468 56 41.3869 54.5924 45.3337 51.9553C49.2805 49.3181 52.3566 45.5698 54.1731 41.1844C55.9896 36.799 56.4649 31.9734 55.5388 27.3178C54.6128 22.6623 52.327 18.3859 48.9706 15.0294C45.6141 11.673 41.3377 9.38721 36.6822 8.46116C32.0266 7.53512 27.201 8.0104 22.8156 9.8269C18.4302 11.6434 14.6819 14.7195 12.0447 18.6663C9.40758 22.6131 8 27.2533 8 32C8 35.968 8.96 39.7067 10.6667 43.0053L8 56L20.9947 53.3333C24.2907 55.0373 28.0347 56 32 56Z" stroke="#919191" stroke-linecap="round" stroke-linejoin="round"/>
</svg>
