<svg width="88" height="49" viewBox="0 0 88 49" fill="none" xmlns="http://www.w3.org/2000/svg">
<path d="M26.0876 13.5185C26.1219 12.9971 26.0902 12.584 25.9925 12.2793C25.8362 11.7917 25.538 11.4904 25.0981 11.3753C24.6581 11.2602 24.1517 11.3046 23.5789 11.5083C22.6744 11.83 21.9788 12.332 21.4923 13.0143C20.9959 13.6661 20.6624 14.6164 20.4919 15.8652C20.2241 17.9633 20.2932 20.5356 20.6992 23.5823C21.1352 26.6182 21.7978 29.5226 22.6869 32.2956C23.9181 36.135 25.371 39.1997 27.0457 41.4895C28.7505 43.7687 30.5619 45.28 32.4798 46.0237C34.3879 46.7369 36.2916 46.7557 38.1911 46.0801C40.7839 45.1579 42.7162 43.5371 43.9878 41.2177C45.2797 38.8572 45.8051 35.8867 45.5639 32.3062C46.653 33.9217 48.002 34.9865 49.6111 35.5005C51.2105 35.984 52.8091 35.9416 54.407 35.3733C56.5778 34.6012 58.2725 33.2346 59.491 31.2736C60.73 29.2714 61.4255 26.9363 61.5776 24.2682C61.7298 21.6002 61.3564 18.8645 60.4575 16.0611C59.2459 12.2826 57.5232 9.73821 55.2893 8.42802C53.0856 7.10711 50.7024 6.9024 48.1396 7.81389C46.3608 8.44657 45.0211 9.29648 44.1205 10.3636C43.2403 11.3896 42.9956 12.512 43.3864 13.7309C43.66 14.5841 44.0559 15.1901 44.574 15.549C45.1223 15.8971 45.7733 15.9372 46.527 15.6691C47.0396 15.4868 47.5729 15.2122 48.1271 14.8454C49.0732 14.3392 49.7271 14.0217 50.0889 13.893C51.1743 13.507 52.1805 13.6074 53.1076 14.1942C54.0649 14.7703 54.8513 16.0182 55.4669 17.9379C56.2974 20.528 56.4191 22.7931 55.832 24.7332C55.2449 26.6733 54.0318 27.9705 52.1927 28.6246C50.7757 29.1286 49.4142 28.9678 48.1082 28.1423C46.8227 27.2756 45.7096 25.5328 44.7691 22.914C44.524 22.2543 44.2218 21.8356 43.8626 21.6579C43.5033 21.4801 43.0071 21.5039 42.3739 21.7291C40.384 22.4368 39.6671 23.7102 40.2232 25.5492C40.9739 28.0998 41.3014 30.3257 41.2056 32.2269C41.1001 34.0975 40.672 35.5907 39.9213 36.7064C39.191 37.7808 38.2681 38.5165 37.1526 38.9132C35.2833 39.5781 33.5829 39.1984 32.0514 37.7742C30.55 36.3392 29.1838 33.702 27.9527 29.8626C27.1417 27.3334 26.5732 24.5653 26.2471 21.5581C25.9414 18.5098 25.8883 15.8299 26.0876 13.5185Z" fill="#FEC123"/>
</svg>
